<svg width="3699" height="697" viewBox="0 0 3699 697" fill="none" xmlns="http://www.w3.org/2000/svg">
<path d="M284.12 524.329C453.684 497.244 627.407 529.185 776.252 614.814L804.676 565.267C705.873 507.584 623.861 425.076 566.768 325.924C509.675 226.772 479.484 114.418 479.189 0L422.093 0C422.289 180.86 491.43 354.839 615.428 486.488C594.373 480.707 573.215 475.815 551.953 471.81C443.581 338.421 384.274 171.871 383.946 0H326.911C326.313 114.508 295.84 226.876 238.505 325.994C181.17 425.112 98.9581 507.545 0 565.144L28.6721 614.69C185.219 523.899 301.299 376.868 353.292 203.514C358.824 224.736 365.203 245.546 372.427 265.943C311.116 426.565 196.521 561.265 47.8074 647.515L76.4795 697.062C175.812 640.223 288.268 610.323 402.71 610.323C517.151 610.323 629.607 640.223 728.94 697.062L757.426 647.515C600.694 557.336 415.444 530.419 239.533 572.266C255.138 556.824 270.021 540.845 284.182 524.329M472.191 460.847C426.016 456.897 379.589 456.897 333.414 460.847C359.842 422.825 382.964 382.607 402.524 340.634C422.255 382.63 445.564 422.849 472.191 460.847Z" fill="#009FB9"/>
<path d="M2363.47 170.047L2339.16 196.745L2402.9 254.788L2427.21 228.091L2363.47 170.047Z" fill="white"/>
<path d="M2515.71 522.162C2445.24 522.162 2415.89 481.471 2414.71 479.737V351.845C2414.7 349.47 2414.23 347.12 2413.31 344.929C2412.39 342.738 2411.05 340.748 2409.37 339.075C2407.68 337.401 2405.69 336.076 2403.49 335.175C2401.29 334.273 2398.94 333.814 2396.56 333.822H2324.42V369.991H2378.54V484.568L2320.7 541.485L2346.03 567.249L2398.67 515.349C2416.51 532.505 2453.66 558.269 2515.65 558.269H2729.36V522.162H2515.71Z" fill="white"/>
<path d="M2431.68 455.893L2450.26 486.86C2451.56 486.116 2483.08 467.041 2519.49 440.719C2533.45 430.502 2546.88 419.588 2559.74 408.018V503.396H2595.84V398.109C2605.01 405.417 2616.22 414.769 2628.98 426.165C2651.75 446.852 2672.33 469.827 2690.41 494.725L2720.07 474.163C2700.45 446.88 2677.99 421.759 2653.07 399.224C2644.19 391.337 2636.1 384.38 2628.79 378.352H2679.76C2682.13 378.352 2684.48 377.884 2686.67 376.974C2688.86 376.065 2690.85 374.732 2692.52 373.052C2694.19 371.371 2695.52 369.377 2696.42 367.184C2697.32 364.99 2697.78 362.639 2697.78 360.268V269.039C2697.78 266.667 2697.32 264.317 2696.42 262.123C2695.52 259.93 2694.19 257.936 2692.52 256.255C2690.85 254.575 2688.86 253.242 2686.67 252.333C2684.48 251.423 2682.13 250.955 2679.76 250.955H2595.91V222.961H2715.61V186.606H2595.91V157.559H2559.8V186.606H2440.53V222.961H2559.8V251.265H2475.89C2471.1 251.265 2466.5 253.17 2463.11 256.561C2459.72 259.953 2457.81 264.553 2457.81 269.349V360.391C2457.81 365.188 2459.72 369.788 2463.11 373.179C2466.5 376.571 2471.1 378.476 2475.89 378.476H2538.56C2525.74 390.146 2512.33 401.144 2498.37 411.425C2463.26 436.755 2431.99 455.707 2431.68 455.955M2661.8 342.369H2595.91V287.062H2661.74L2661.8 342.369ZM2493.98 287.186H2559.8V342.369H2493.98V287.186Z" fill="white"/>
<path d="M3409 497.202V400.834H3458.92V364.664H3409V324.717H3440.77C3445.57 324.717 3450.17 322.812 3453.56 319.42C3456.95 316.029 3458.86 311.429 3458.86 306.633V192.365C3458.86 187.569 3456.95 182.969 3453.56 179.578C3450.17 176.186 3445.57 174.281 3440.77 174.281H3331.66C3326.86 174.281 3322.26 176.186 3318.87 179.578C3315.48 182.969 3313.58 187.569 3313.58 192.365V306.633C3313.58 311.429 3315.48 316.029 3318.87 319.42C3322.26 322.812 3326.86 324.717 3331.66 324.717H3373.09V508.846L3346.89 517.331V361.134H3310.6V528.974L3286.27 536.778L3297.35 571.151L3481.4 511.695L3470.31 477.322L3409 497.202ZM3349.62 210.574H3422.75V288.61H3349.62V210.574Z" fill="white"/>
<path d="M3698.08 390.181C3664.09 368.154 3632.41 342.757 3603.52 314.375C3631.79 284.105 3656.9 251.026 3678.45 215.653C3680.02 212.909 3680.85 209.799 3680.84 206.635C3680.84 203.47 3680 200.363 3678.41 197.627C3676.82 194.89 3674.54 192.619 3671.8 191.043C3669.05 189.468 3665.94 188.642 3662.78 188.649H3566.3C3572.49 178.74 3574.85 175.148 3575.28 174.343L3543.57 157.001C3521.38 194.552 3492.37 227.633 3458.05 254.547L3479.73 283.47C3490.44 275.109 3499.17 267.553 3507.28 259.935C3521.47 278.923 3536.68 297.118 3552.86 314.437C3523.91 343.202 3492.1 368.934 3457.93 391.234L3477.99 421.148C3483.32 418.175 3488.95 414.211 3488.95 414.211V566.444H3525.06V542.785H3630.33V566.444H3666.43V412.663C3666.43 412.663 3673.99 417.804 3678.32 420.529L3698.08 390.181ZM3629.34 224.757C3613.56 246.96 3596.43 268.181 3578.06 288.301C3561.91 270.867 3546.73 252.548 3532.61 233.427C3535.15 230.517 3537.56 227.606 3539.86 224.819L3629.34 224.757ZM3525.12 435.331H3630.39V506.616H3525.12V435.331ZM3509.51 399.781C3533.72 381.627 3556.69 361.867 3578.25 340.634C3600.13 361.986 3623.47 381.791 3648.1 399.905L3509.51 399.781Z" fill="white"/>
<path d="M1615.92 214.29L1587.31 191.994C1587.31 191.994 1576.78 205.496 1557.52 226.243V203.824H1502.53V157.621H1466.43V203.824H1392.11V239.931H1466.43V284.151H1373.54V320.259H1457.2C1429.13 343.274 1399.43 364.221 1368.33 382.935L1386.04 414.336C1386.97 413.84 1396.82 408.142 1412.86 397.614V566.444H1449.02V543.343H1551.08V566.444H1587.18V375.256C1587.17 370.481 1585.26 365.906 1581.89 362.53C1578.51 359.153 1573.94 357.249 1569.16 357.233H1468.59C1479.99 348.314 1492.12 338.653 1504.88 327.319L1512.93 320.32H1600.56V284.151H1551.88C1574.68 262.239 1596.07 238.905 1615.92 214.29ZM1448.71 468.218H1550.77V507.112H1448.71V468.218ZM1550.77 432.11H1448.71V393.402H1550.77V432.11ZM1544.58 240.117C1532.81 252.503 1518.63 266.314 1502.34 281.24V239.931L1544.58 240.117Z" fill="white"/>
<path d="M1776.06 207.415C1776.06 202.619 1774.15 198.019 1770.76 194.628C1767.37 191.236 1762.77 189.331 1757.98 189.331H1639.45C1637.07 189.322 1634.72 189.785 1632.52 190.691C1630.32 191.597 1628.32 192.928 1626.64 194.609C1624.96 196.29 1623.63 198.287 1622.73 200.485C1621.82 202.683 1621.36 205.038 1621.37 207.415V566.63H1657.47V225.995H1729.55L1686.2 319.267C1685.11 321.49 1684.5 323.916 1684.41 326.39C1684.41 330.035 1685.51 333.595 1687.57 336.609C1710.48 370.053 1737.11 422.944 1737.11 453.539C1737.3 458.539 1736.28 463.512 1734.13 468.032C1730.23 475.402 1720.2 479.118 1704.29 479.118H1676.98V515.287H1704.29C1742.12 515.287 1758.78 498.751 1766.21 484.878C1770.98 475.264 1773.36 464.641 1773.15 453.911C1773.15 407.708 1739.15 349.677 1723.24 325.089L1774.32 215.281C1775.43 212.894 1776 210.294 1776 207.663" fill="white"/>
<path d="M1307.03 257.953V221.412H1187.26L1217.17 179.607L1187.94 157.063L1141.81 221.598H1079.57L1030.83 157.063L1002.53 179.607L1032.88 221.66H912.924V258.201H1079.63L1064.33 292.326H981.848C976.974 292.326 972.295 294.241 968.82 297.658C965.345 301.076 963.352 305.723 963.27 310.597V566.444H999.807V542.724H1218.78V566.444H1255.32V310.349C1255.24 305.528 1253.29 300.927 1249.88 297.518C1246.47 294.109 1241.87 292.158 1237.05 292.079H1104.65L1120.01 257.953H1307.03ZM1000.12 400.029H1219.09V434.773H1000.12V400.029ZM1000.12 471.314H1219.09V506.183H1000.12V471.314ZM1219.09 363.426H1000.12V328.681H1219.09V363.426Z" fill="white"/>
<path d="M3001.65 522.162C2931.12 522.162 2901.76 481.471 2900.59 479.737V351.844C2900.59 347.065 2898.69 342.48 2895.31 339.1C2891.93 335.721 2887.35 333.822 2882.57 333.822H2810.36V369.991H2864.48V484.568L2806.64 541.485L2831.97 567.249L2884.61 515.349C2902.44 532.505 2939.6 558.269 3001.65 558.269H3215.3V522.162H3001.65Z" fill="white"/>
<path d="M2849.5 170.015L2825.19 196.712L2888.93 254.756L2913.24 228.059L2849.5 170.015Z" fill="white"/>
<path d="M3206.57 246.248V210.079H3141.98L3164.27 179.112L3134.98 157.931L3097.82 209.893H3035.9L2998.24 157.931L2968.58 179.607L2990.94 210.574H2926.41V246.743H3033.48L3024.56 271.207H2966.29C2963.92 271.199 2961.57 271.659 2959.38 272.561C2957.18 273.463 2955.19 274.789 2953.51 276.464C2951.83 278.138 2950.5 280.128 2949.59 282.318C2948.68 284.509 2948.21 286.858 2948.21 289.23V478.932C2948.2 481.312 2948.66 483.671 2949.57 485.872C2950.47 488.073 2951.8 490.074 2953.48 491.76C2955.16 493.446 2957.16 494.783 2959.36 495.696C2961.55 496.609 2963.91 497.079 2966.29 497.079H3166.25C3171.05 497.079 3175.65 495.173 3179.04 491.782C3182.43 488.39 3184.33 483.79 3184.33 478.994V288.734C3184.33 286.362 3183.87 284.014 3182.96 281.823C3182.05 279.632 3180.71 277.643 3179.03 275.968C3177.35 274.294 3175.36 272.968 3173.17 272.066C3170.97 271.164 3168.62 270.703 3166.25 270.712H3062.96L3071.88 246.248H3206.57ZM3148.29 460.848H2984.44V433.535H3148.29V460.848ZM3148.29 397.428H2984.44V370.177H3148.29V397.428ZM3148.29 333.946H2984.44V306.695H3148.29V333.946Z" fill="white"/>
<path d="M2069.16 189.393V157.869H2032.62V189.393H1852.54V225.872H2249.24V189.393H2069.16Z" fill="white"/>
<path d="M2218.09 362.435H1883.69C1878.76 362.435 1874.03 364.393 1870.55 367.877C1867.07 371.362 1865.11 376.087 1865.11 381.015V566.196H1901.65V398.976H2199.45C2199.45 426.598 2199.45 520.366 2199.45 521.047C2199.45 535.292 2192.39 538.45 2183.72 538.45V574.929C2214.19 574.929 2235.93 563.286 2235.93 533.558V380.706C2235.93 375.778 2233.97 371.052 2230.49 367.567C2227 364.083 2222.28 362.125 2217.35 362.125" fill="white"/>
<path d="M2168.74 341.254C2173.6 341.255 2178.27 339.348 2181.74 335.944C2185.22 332.539 2187.22 327.908 2187.31 323.045V265.323C2187.22 260.46 2185.22 255.829 2181.74 252.425C2178.27 249.02 2173.6 247.114 2168.74 247.115H1933.04C1928.18 247.114 1923.51 249.02 1920.04 252.425C1916.56 255.829 1914.56 260.46 1914.47 265.323V323.045C1914.46 325.468 1914.95 327.867 1915.89 330.1C1916.82 332.334 1918.2 334.358 1919.93 336.054C1921.66 337.75 1923.71 339.083 1925.96 339.976C1928.21 340.869 1930.62 341.303 1933.04 341.254H2168.74ZM1951.31 283.594H2150.41V304.775H1951.31V283.594Z" fill="white"/>
<path d="M2130.28 424.245H1969.27C1966.87 424.236 1964.5 424.701 1962.28 425.613C1960.07 426.524 1958.05 427.864 1956.36 429.556C1954.66 431.247 1953.31 433.257 1952.39 435.471C1951.48 437.684 1951 440.057 1951 442.453V510.58C1951 512.976 1951.48 515.349 1952.39 517.562C1953.31 519.775 1954.66 521.786 1956.36 523.477C1958.05 525.169 1960.07 526.509 1962.28 527.42C1964.5 528.331 1966.87 528.796 1969.27 528.788H2130.28C2135.14 528.789 2139.81 526.883 2143.29 523.478C2146.76 520.074 2148.76 515.443 2148.86 510.58V442.453C2148.86 440.03 2148.38 437.632 2147.44 435.398C2146.5 433.164 2145.12 431.14 2143.39 429.444C2141.66 427.749 2139.61 426.415 2137.36 425.522C2135.11 424.63 2132.7 424.195 2130.28 424.245ZM2112.07 492.371H1985.74V460.723H2112.32L2112.07 492.371Z" fill="white"/>
</svg>
